<svg width="1200" height="800" viewBox="0 0 1200 800" fill="none" xmlns="http://www.w3.org/2000/svg">
  <rect width="1200" height="800" fill="#FFF7ED" />
  <rect x="120" y="420" width="960" height="170" rx="50" fill="#1F2937" />
  <path d="M260 420C300 300 420 240 590 240H760C855 240 940 286 1000 380L1030 420H260Z" fill="#374151" />
  <rect x="370" y="286" width="210" height="110" rx="22" fill="#93C5FD" />
  <rect x="615" y="286" width="255" height="110" rx="22" fill="#BFDBFE" />
  <circle cx="340" cy="606" r="86" fill="#0F172A" />
  <circle cx="340" cy="606" r="40" fill="#E5E7EB" />
  <circle cx="870" cy="606" r="86" fill="#0F172A" />
  <circle cx="870" cy="606" r="40" fill="#E5E7EB" />
  <rect x="172" y="460" width="92" height="42" rx="14" fill="#F59E0B" />
  <rect x="944" y="460" width="92" height="42" rx="14" fill="#F59E0B" />
  <text x="600" y="705" text-anchor="middle" font-family="Arial, sans-serif" font-size="46" fill="#92400E">Mini / Hatchback</text>
</svg>
