<svg width="1200" height="800" viewBox="0 0 1200 800" fill="none" xmlns="http://www.w3.org/2000/svg">
  <rect width="1200" height="800" fill="#ECFEFF" />
  <rect x="90" y="430" width="1020" height="165" rx="46" fill="#0F766E" />
  <path d="M230 430C300 285 430 225 640 225H810C905 225 985 276 1048 382L1068 430H230Z" fill="#0D9488" />
  <rect x="370" y="278" width="232" height="112" rx="18" fill="#A5F3FC" />
  <rect x="630" y="278" width="255" height="112" rx="18" fill="#CFFAFE" />
  <circle cx="326" cy="612" r="88" fill="#111827" />
  <circle cx="326" cy="612" r="42" fill="#D1D5DB" />
  <circle cx="894" cy="612" r="88" fill="#111827" />
  <circle cx="894" cy="612" r="42" fill="#D1D5DB" />
  <rect x="154" y="470" width="92" height="36" rx="12" fill="#FDE68A" />
  <rect x="954" y="470" width="92" height="36" rx="12" fill="#FDE68A" />
  <text x="600" y="708" text-anchor="middle" font-family="Arial, sans-serif" font-size="46" fill="#115E59">Sedan</text>
</svg>
