<svg width="1200" height="800" viewBox="0 0 1200 800" fill="none" xmlns="http://www.w3.org/2000/svg">
  <rect width="1200" height="800" fill="#EEF2FF" />
  <rect x="80" y="410" width="1040" height="190" rx="38" fill="#1E3A8A" />
  <path d="M200 410C260 282 392 220 592 220H830C942 220 1027 292 1090 380L1120 410H200Z" fill="#1D4ED8" />
  <rect x="332" y="272" width="242" height="116" rx="14" fill="#BFDBFE" />
  <rect x="606" y="272" width="294" height="116" rx="14" fill="#DBEAFE" />
  <circle cx="312" cy="622" r="96" fill="#030712" />
  <circle cx="312" cy="622" r="45" fill="#E5E7EB" />
  <circle cx="908" cy="622" r="96" fill="#030712" />
  <circle cx="908" cy="622" r="45" fill="#E5E7EB" />
  <rect x="148" y="458" width="86" height="38" rx="10" fill="#FACC15" />
  <rect x="968" y="458" width="86" height="38" rx="10" fill="#FACC15" />
  <text x="600" y="714" text-anchor="middle" font-family="Arial, sans-serif" font-size="46" fill="#1E40AF">SUV</text>
</svg>
